# xmcd
#
# Track frame offsets: 
#        150
#        17218
#        35707
#        53384
#        70976
#        86614
#        103376
#        119615
#        135177
#        153840
#
# Disc length: 2284 seconds
#
# Revision: 0
# Processed by: cddbd v1.5.1PL2 Copyright (c) Steve Scherf et al.
# Submitted via: ExactAudioCopy v0.95b4
#
DISCID=8008ea0a
DTITLE=เกษม  คมสันต์ - กอดรูปจูบกระดาษ
DYEAR=2003
DGENRE=Country
TTITLE0=กอดรูปจูบกระดาษ
TTITLE1=ขอแหวนแม่คืน
TTITLE2=อ้ายมันกรจอก
TTITLE3=อายหรือเปล่า
TTITLE4=จอมแก่น
TTITLE5=ไผสิทนได้
TTITLE6=คนขึ้แพ้
TTITLE7=รักแท้จากลูกทุ่ง
TTITLE8=คิดถึงคุณครู
TTITLE9=บ่ย่านดอก
EXTD=
EXTT0=
EXTT1=
EXTT2=
EXTT3=
EXTT4=
EXTT5=
EXTT6=
EXTT7=
EXTT8=
EXTT9=
PLAYORDER=
